<svg xmlns="http://www.w3.org/2000/svg" version="1.1" viewBox="-5.0 -10.0 110.0 135.0">
 <path d="m84.621 84.617c8.8594-8.8594 14.34-21.098 14.34-34.621 0-13.52-5.4805-25.762-14.34-34.621-8.8633-8.8633-21.098-14.34-34.621-14.34-13.52 0-25.762 5.4805-34.621 14.34-8.8633 8.8594-14.34 21.098-14.34 34.621 0 13.52 5.4805 25.762 14.34 34.621 8.8594 8.8594 21.098 14.34 34.621 14.34 13.52 0 25.758-5.4766 34.621-14.34zm-34.621-2.5156c1.2656 0 2.2969 1.0273 2.2969 2.2969 0 1.2656-1.0273 2.2969-2.2969 2.2969-10.133 0-19.305-4.1055-25.945-10.75-6.6406-6.6406-10.75-15.816-10.75-25.945 0-10.133 4.1055-19.305 10.75-25.945 6.6406-6.6406 15.812-10.75 25.945-10.75s19.305 4.1055 25.945 10.75c6.6406 6.6406 10.75 15.816 10.75 25.945 0 1.2656-1.0273 2.2969-2.2969 2.2969-1.2656 0-2.2969-1.0273-2.2969-2.2969 0-8.8633-3.5938-16.895-9.4062-22.703-5.8086-5.8125-13.836-9.4062-22.703-9.4062-8.8633 0-16.895 3.5938-22.703 9.4062-5.8086 5.8086-9.4023 13.836-9.4023 22.703 0 8.8633 3.5938 16.895 9.4023 22.703 5.8125 5.8125 13.836 9.4062 22.703 9.4062zm-12.723-26.23c-1.2188 0.32812-2.4766-0.38672-2.8047-1.6055-0.33203-1.2188 0.38672-2.4766 1.6055-2.8047l11.629-3.1992v-14.477c0-1.2656 1.0273-2.2969 2.2969-2.2969 1.2656 0 2.2969 1.0273 2.2969 2.2969v16.211h-0.007812c0 1.0039-0.66406 1.9297-1.6875 2.2031l-13.324 3.668z" fill-rule="evenodd"/>
<text x="0.0" y="117.5" font-size="5.0" font-weight="bold" font-family="Arbeit Regular, Helvetica, Arial-Unicode, Arial, Sans-serif" fill="#000000">Created by UNKNOWN</text><text x="0.0" y="122.5" font-size="5.0" font-weight="bold" font-family="Arbeit Regular, Helvetica, Arial-Unicode, Arial, Sans-serif" fill="#000000">from Noun Project</text></svg>