<svg xmlns="http://www.w3.org/2000/svg" data-name="Layer 29" viewBox="0 0 32 40" x="0px" y="0px"><path d="m30,8c0-3.31-2.69-6-6-6-2.3,0-4.29,1.3-5.3,3.2-1.15-.62-2.4-1-3.7-1.13v-1.07c0-.55-.45-1-1-1s-1,.45-1,1v1.05c-5.05.5-9,4.77-9,9.95v6.18c-1.16.42-2,1.52-2,2.82,0,1.65,1.35,3,3,3h4.1c.47,2.28,2.49,4,4.9,4s4.43-1.72,4.9-4h4.1c1.65,0,3-1.35,3-3,0-1.3-.84-2.4-2-2.82v-6.18c3.31,0,6-2.69,6-6ZM14,28c-1.3,0-2.4-.84-2.82-2h5.64c-.42,1.16-1.52,2-2.82,2Zm6-20c0-2.21,1.79-4,4-4s4,1.79,4,4-1.79,4-4,4-4-1.79-4-4Z"/><text x="0" y="47" fill="#000000" font-size="5px" font-weight="bold" font-family="'Helvetica Neue', Helvetica, Arial-Unicode, Arial, Sans-serif">Created by Adriansyah</text><text x="0" y="52" fill="#000000" font-size="5px" font-weight="bold" font-family="'Helvetica Neue', Helvetica, Arial-Unicode, Arial, Sans-serif">from the Noun Project</text></svg>