<svg xmlns="http://www.w3.org/2000/svg" version="1.1" viewBox="-5.0 -10.0 110.0 135.0">
 <path d="m13.352 8.957h58.672c3.3906 0 6.4688 1.3867 8.6953 3.6133 2.2305 2.2305 3.6133 5.3086 3.6133 8.6953v1.9414h2.3125c3.3906 0 6.4688 1.3828 8.6953 3.6133 2.2305 2.2305 3.6133 5.3086 3.6133 8.6953v47.566c0 1.5781-0.44531 3.0586-1.2656 4.3203-0.81641 1.2578-1.9805 2.2695-3.418 2.918-1.4492 0.65234-2.9805 0.85547-4.4492 0.63281s-2.8711-0.875-4.0664-1.9336l-5.8633-5.1914c-0.32422-0.28906-0.66406-0.49609-1.0273-0.63672-0.35547-0.13672-0.75391-0.19922-1.1992-0.19922h-49.703c-3.3906 0-6.4688-1.3828-8.6953-3.6133-1.6484-1.6484-2.8359-3.7617-3.3438-6.1172l-1.7031 1.5078c-1.1953 1.0547-2.5938 1.707-4.0664 1.9336-1.4688 0.22266-3 0.019531-4.4492-0.63281-1.4414-0.64844-2.6055-1.6602-3.418-2.9141-0.03125-0.050781-0.0625-0.10156-0.09375-0.15625-0.75781-1.2266-1.1719-2.6523-1.1719-4.1641v-47.566c0-3.3906 1.3867-6.4688 3.6133-8.6953 2.2305-2.2305 5.3086-3.6133 8.6953-3.6133zm4.6094 45.566c-1.2656 0-2.2969-1.0273-2.2969-2.2969 0-1.2656 1.0273-2.2969 2.2969-2.2969h35.281c1.2656 0 2.2969 1.0273 2.2969 2.2969 0 1.2656-1.0273 2.2969-2.2969 2.2969zm0-13.363c-1.2656 0-2.2969-1.0273-2.2969-2.2969 0-1.2656 1.0273-2.2969 2.2969-2.2969h49.457c1.2656 0 2.2969 1.0273 2.2969 2.2969 0 1.2656-1.0273 2.2969-2.2969 2.2969zm0-13.359c-1.2656 0-2.2969-1.0273-2.2969-2.2969 0-1.2656 1.0273-2.2969 2.2969-2.2969h49.457c1.2656 0 2.2969 1.0273 2.2969 2.2969 0 1.2656-1.0273 2.2969-2.2969 2.2969zm66.375 0v28.633c0 3.3867-1.3828 6.4688-3.6133 8.6953-2.2305 2.2305-5.3086 3.6133-8.6953 3.6133h-49.703c-0.44531 0-0.84766 0.066406-1.1992 0.19922-0.30469 0.11719-0.58984 0.28125-0.86719 0.5v1.2383c0 2.1211 0.87109 4.0508 2.2695 5.4492 1.4023 1.4023 3.3281 2.2695 5.4492 2.2695h49.703c0.98828 0 1.9219 0.16797 2.8125 0.50781 0.88281 0.33203 1.6953 0.83203 2.4453 1.4961l5.8633 5.1914c0.50781 0.44922 1.1016 0.72656 1.7148 0.82031s1.2656 0.007813 1.8828-0.27344c0.63281-0.28516 1.1328-0.70703 1.4688-1.2266 0.32812-0.51172 0.50781-1.1367 0.50781-1.8281v-47.566c0-2.1211-0.87109-4.0547-2.2695-5.4492-1.4023-1.4023-3.3281-2.2695-5.4492-2.2695z" fill-rule="evenodd"/>
<text x="0.0" y="117.5" font-size="5.0" font-weight="bold" font-family="Arbeit Regular, Helvetica, Arial-Unicode, Arial, Sans-serif" fill="#000000">Created by ARISO</text><text x="0.0" y="122.5" font-size="5.0" font-weight="bold" font-family="Arbeit Regular, Helvetica, Arial-Unicode, Arial, Sans-serif" fill="#000000">from Noun Project</text></svg>